# xmcd CD database file
#
# Track frame offsets:
#	150
#	14186
#	38412
#	58487
#	72965
#	84246
#	95498
#	111219
#	124574
#	137268
#	151470
#	168723
#	181866
#	194028
#	212389
#	232472
#	242580
#	254755
#	271573
#
# Disc length: 4057 seconds
#
# Revision: 1
# Processed by: cddbd v1.5.2PL0 Copyright (c) Steve Scherf et al.
# Submitted via: CDex 1.51
#
DISCID=100fd713
DTITLE=Stan Kenton - Vol. 217 - Immortal Concerts
DYEAR=1997
DGENRE=Jazz
TTITLE0=Artistry In Rythm
TTITLE1=Intermission Riff
TTITLE2=The Way You Look Tonight
TTITLE3=When I Fall In Love
TTITLE4=Lullaby Of Broadway
TTITLE5=The Party's Over
TTITLE6=I've Never Been In Love Beforee
TTITLE7=You'd Be So Nice To Come Home To
TTITLE8=Mission Trail
TTITLE9=How Deep Is The Ocean
TTITLE10=Tuxedo Junction
TTITLE11=Begin The Beguine
TTITLE12=Younger Than Springtime
TTITLE13=Prelude To A Kiss
TTITLE14=Cha Cha Sombrero
TTITLE15=Stardust
TTITLE16=Siesta
TTITLE17=When Your Lover Has Gone
TTITLE18=Medley: Eager Beaver, Dynaflow, Jump For Joe, Artistry In Rhythm
EXTD=The Enlisted Men's Club - U.S. Marine Corps Supply Centre\nBarstow, California, January 30, 1960\nStan Kenton and his Orchestra\nBud Brisbois, Dalton Smith, Bill Chase, Rolf Ericson, Danny Nolan (tp]\nBob Fitzpatrick, Kent Larsen, Bill Smiley (tb),J
EXTD=im Amlotte, Bob Knight (b-tb]\nLennie Niehaus (as), Bill Trujillo, Ronnie Rubin (ts), Jack Nimitz, Marvin Holladay (bs]\nStan Kenton (p), Pete Chivily (b), Jimmy Campbell (d), Mike Pacheco (latin perc.) YEAR: 1997
EXTT0=
EXTT1=
EXTT2=
EXTT3=
EXTT4=
EXTT5=
EXTT6=
EXTT7=
EXTT8=
EXTT9=
EXTT10=
EXTT11=
EXTT12=
EXTT13=
EXTT14=
EXTT15=
EXTT16=
EXTT17=
EXTT18=
PLAYORDER=
